<?xml version="1.0" encoding="UTF-8" standalone="no"?>
<svg
   width="64pt"
   height="64pt"
   viewBox="0 0 22.577778 22.577778"
   version="1.1"
   id="svg831"
   inkscape:version="1.1.2 (1:1.1+202202050950+0a00cf5339)"
   sodipodi:docname="11 - Delivery Courier.svg"
   inkscape:export-filename="/media/taufikramadhan/Data/Tr Design Studio/Project Design/TR Creative Design/Icon Design/Project Hiring/Icon Icons/019 - Commerce And Shopping/5 - Send/11 - Delivery Courier.png"
   inkscape:export-xdpi="576"
   inkscape:export-ydpi="576"
   xmlns:inkscape="http://www.inkscape.org/namespaces/inkscape"
   xmlns:sodipodi="http://sodipodi.sourceforge.net/DTD/sodipodi-0.dtd"
   xmlns="http://www.w3.org/2000/svg"
   xmlns:svg="http://www.w3.org/2000/svg"
   xmlns:rdf="http://www.w3.org/1999/02/22-rdf-syntax-ns#"
   xmlns:cc="http://creativecommons.org/ns#"
   xmlns:dc="http://purl.org/dc/elements/1.1/">
  <defs
     id="defs825">
    <pattern
       id="EMFhbasepattern"
       patternUnits="userSpaceOnUse"
       width="6"
       height="6"
       x="0"
       y="0" />
    <pattern
       id="EMFhbasepattern-9"
       patternUnits="userSpaceOnUse"
       width="6"
       height="6"
       x="0"
       y="0" />
    <pattern
       id="EMFhbasepattern-0"
       patternUnits="userSpaceOnUse"
       width="6"
       height="6"
       x="0"
       y="0" />
    <pattern
       id="EMFhbasepattern-7"
       patternUnits="userSpaceOnUse"
       width="6"
       height="6"
       x="0"
       y="0" />
    <pattern
       id="EMFhbasepattern-2"
       patternUnits="userSpaceOnUse"
       width="6"
       height="6"
       x="0"
       y="0" />
    <pattern
       id="EMFhbasepattern-98"
       patternUnits="userSpaceOnUse"
       width="6"
       height="6"
       x="0"
       y="0" />
    <pattern
       id="EMFhbasepattern-6"
       patternUnits="userSpaceOnUse"
       width="6"
       height="6"
       x="0"
       y="0" />
    <pattern
       id="EMFhbasepattern-01"
       patternUnits="userSpaceOnUse"
       width="6"
       height="6"
       x="0"
       y="0" />
    <pattern
       id="EMFhbasepattern-07"
       patternUnits="userSpaceOnUse"
       width="6"
       height="6"
       x="0"
       y="0" />
    <pattern
       id="EMFhbasepattern-8"
       patternUnits="userSpaceOnUse"
       width="6"
       height="6"
       x="0"
       y="0" />
    <pattern
       id="EMFhbasepattern-4"
       patternUnits="userSpaceOnUse"
       width="6"
       height="6"
       x="0"
       y="0" />
    <pattern
       id="EMFhbasepattern-40"
       patternUnits="userSpaceOnUse"
       width="6"
       height="6"
       x="0"
       y="0" />
    <pattern
       id="EMFhbasepattern-08"
       patternUnits="userSpaceOnUse"
       width="6"
       height="6"
       x="0"
       y="0" />
    <pattern
       id="EMFhbasepattern-04"
       patternUnits="userSpaceOnUse"
       width="6"
       height="6"
       x="0"
       y="0" />
    <pattern
       id="EMFhbasepattern-014"
       patternUnits="userSpaceOnUse"
       width="6"
       height="6"
       x="0"
       y="0" />
    <pattern
       id="EMFhbasepattern-27"
       patternUnits="userSpaceOnUse"
       width="6"
       height="6"
       x="0"
       y="0" />
    <pattern
       id="EMFhbasepattern-09"
       patternUnits="userSpaceOnUse"
       width="6"
       height="6"
       x="0"
       y="0" />
    <pattern
       id="EMFhbasepattern-5"
       patternUnits="userSpaceOnUse"
       width="6"
       height="6"
       x="0"
       y="0" />
    <pattern
       id="EMFhbasepattern-018"
       patternUnits="userSpaceOnUse"
       width="6"
       height="6"
       x="0"
       y="0" />
  </defs>
  <sodipodi:namedview
     id="base"
     pagecolor="#ffffff"
     bordercolor="#666666"
     borderopacity="1.0"
     inkscape:pageopacity="0.0"
     inkscape:pageshadow="2"
     inkscape:zoom="4.4249417"
     inkscape:cx="38.079598"
     inkscape:cy="41.356477"
     inkscape:document-units="pt"
     inkscape:current-layer="layer1"
     showgrid="false"
     units="pt"
     inkscape:window-width="1366"
     inkscape:window-height="705"
     inkscape:window-x="0"
     inkscape:window-y="31"
     inkscape:window-maximized="1"
     inkscape:pagecheckerboard="true"
     inkscape:showpageshadow="false"
     inkscape:object-paths="true"
     inkscape:snap-intersection-paths="true"
     inkscape:snap-smooth-nodes="true"
     inkscape:snap-midpoints="true"
     showguides="true"
     inkscape:snap-bbox="true"
     inkscape:bbox-nodes="true"
     inkscape:snap-nodes="false"
     inkscape:snap-global="true"
     inkscape:document-rotation="0">
    <inkscape:grid
       type="xygrid"
       id="grid1378" />
    <sodipodi:guide
       position="0.97013831,21.607643"
       orientation="78.000048,0"
       id="guide1380"
       inkscape:locked="false" />
    <sodipodi:guide
       position="0.97013831,0.97013129"
       orientation="0,78.000005"
       id="guide1382"
       inkscape:locked="false" />
    <sodipodi:guide
       position="21.607639,0.97013129"
       orientation="-78.000048,0"
       id="guide1384"
       inkscape:locked="false" />
    <sodipodi:guide
       position="21.607639,21.607643"
       orientation="0,-78.000005"
       id="guide1386"
       inkscape:locked="false" />
  </sodipodi:namedview>
  <metadata
     id="metadata828">
    <rdf:RDF>
      <cc:Work
         rdf:about="">
        <dc:format>image/svg+xml</dc:format>
        <dc:type
           rdf:resource="http://purl.org/dc/dcmitype/StillImage" />
      </cc:Work>
    </rdf:RDF>
  </metadata>
  <g
     inkscape:label="Icon"
     inkscape:groupmode="layer"
     id="layer1"
     transform="translate(0,-274.42223)">
    <g
       id="g1045840"
       style="display:inline;stroke-width:0.794892"
       transform="matrix(1.2580331,0,0,1.2580331,-76.110033,-77.274502)">
      <path
         style="color:#000000;fill:#ffa185;stroke-width:0.794892;stroke-linecap:round;stroke-linejoin:round;stroke-miterlimit:1.5;-inkscape-stroke:none"
         d="m 69.017578,286.46094 a 0.26460996,0.26460996 0 0 0 -0.259766,0.20703 L 68.464844,288 a 0.26460996,0.26460996 0 0 0 0.138672,0.29297 l 1.324218,0.66211 a 0.26460996,0.26460996 0 0 0 0.236328,0 l 1.322266,-0.66211 A 0.26460996,0.26460996 0 0 0 71.626953,288 l -0.294922,-1.33203 a 0.26460996,0.26460996 0 0 0 -0.257812,-0.20703 z"
         id="path2596725" />
      <path
         style="color:#000000;fill:#dc1c4b;fill-opacity:1;stroke-width:0.794892;stroke-linecap:round;stroke-linejoin:round;stroke-miterlimit:1.5;-inkscape-stroke:none"
         d="m 70.044922,280.33203 c -1.128326,0 -1.825385,0.4745 -2.191406,1.04492 -0.366022,0.57042 -0.423829,1.20347 -0.423829,1.57032 a 0.26460996,0.26460996 0 0 0 0.263672,0.26562 h 4.705078 a 0.26460996,0.26460996 0 0 0 0.263672,-0.26562 c 0,-0.36685 -0.05781,-0.99989 -0.423828,-1.57032 -0.36602,-0.57042 -1.065029,-1.04492 -2.193359,-1.04492 z"
         id="path2596731" />
      <path
         style="color:#000000;fill:#dc1c4b;fill-opacity:1;stroke-width:3.00432;stroke-linecap:round;stroke-linejoin:round;stroke-miterlimit:1.5;-inkscape-stroke:none"
         d="m 244.45119,35.933597 c -0.67534,2.013316 -0.70898,4.171059 -0.70898,5.654297 V 57.99805 c -0.002,0.552453 0.44364,1.001941 0.99609,1.003906 h 40.00391 c 0.55228,-0.0022 0.99825,-0.451621 0.99609,-1.003906 V 41.587891 c 0,-1.483238 -0.0336,-3.640981 -0.70898,-5.654297 -0.67535,-2.013317 -2.14534,-3.95749 -4.83103,-4.532243 L 273.75,30.589844 c -0.0811,-0.01 -0.16307,-0.01 -0.24414,0 l -8.76953,1.099609 -8.76172,-1.099609 c -0.0837,-0.01062 -0.1683,-0.01062 -0.25195,0 l -6.44726,0.811525 c -2.68473,0.574738 -4.14886,2.518911 -4.82421,4.532228 z"
         transform="matrix(0.26458334,0,0,0.26458334,0,280.06666)"
         id="path2596737"
         sodipodi:nodetypes="ssccccsscccccccs" />
      <path
         style="color:#000000;fill:#ffa185;stroke-width:0.794892;stroke-linecap:round;stroke-linejoin:round;stroke-miterlimit:1.5;-inkscape-stroke:none"
         d="m 73.574219,295.67773 h 1.763672 c 0.146168,-5.2e-4 0.26423,-0.11945 0.263671,-0.26562 v -3.02734 h -2.027343 z"
         id="path2596755"
         sodipodi:nodetypes="cccccc" />
      <path
         style="color:#000000;fill:#feae72;stroke-width:0.794892;stroke-linecap:round;stroke-linejoin:round;stroke-miterlimit:1.5;-inkscape-stroke:none"
         d="m 63.953125,291.70898 c -0.333269,0 -0.609375,0.27611 -0.609375,0.60938 v 3.80664 c 0,0.33327 0.276106,0.61133 0.609375,0.61133 h 3.806641 c 0.333268,0 0.609375,-0.27806 0.609375,-0.61133 v -3.80664 c 0,-0.33327 -0.276107,-0.60938 -0.609375,-0.60938 z"
         id="path2596719" />
      <path
         style="color:#000000;fill:#d0e2ee;stroke-width:3.00432;stroke-linecap:round;stroke-linejoin:round;stroke-miterlimit:1.5;-inkscape-stroke:none"
         d="m 264.91211,47 h -1.86523 c -1.25943,0 -2.31055,1.043282 -2.31055,2.302734 v 11.390625 c 0,1.259415 1.05109,2.310547 2.31055,2.310547 h 9.38867 c 1.25946,0 2.30273,-1.051132 2.30273,-2.310547 V 49.302734 C 274.73828,48.043282 273.69497,47 272.43555,47 h -1.87305 c -0.41604,-1.15948 -1.49323,-2 -2.8252,-2 -1.29924,0.03255 -2.41557,0.863438 -2.82519,2 z"
         transform="matrix(0.26458334,0,0,0.26458334,0,280.06666)"
         id="path2596773"
         sodipodi:nodetypes="cssssssssccc" />
      <path
         id="path2596799"
         style="color:#000000;fill:#66342d;stroke-width:3.00432;stroke-linecap:round;stroke-linejoin:round;stroke-miterlimit:1.5;-inkscape-stroke:none"
         d="m 246.43164,57 a 1.0001006,1.0001006 0 0 0 -1.02734,0.998047 v 5.005859 h 7.0039 v -5.005859 a 1.0001006,1.0001006 0 0 0 -1.32031,-0.945313 l -2.60547,0.865235 -1.63281,-0.8125 A 1.0001006,1.0001006 0 0 0 246.43164,57 Z"
         transform="matrix(0.26458334,0,0,0.26458334,0,280.06666)" />
      <path
         style="color:#000000;fill:#ffa185;stroke-width:0.794892;stroke-linecap:round;stroke-linejoin:round;stroke-miterlimit:1.5;-inkscape-stroke:none"
         d="m 67.693544,283.36723 c -0.156816,8.2e-4 -0.27881,0.13709 -0.261998,0.29301 l 0.0279,0.25786 c -0.337317,0.0916 -0.588595,0.40282 -0.588595,0.7674 0,0.43524 0.357997,0.79323 0.793234,0.79323 0.04202,0 0.07473,-0.002 0.101285,-0.004 0.09543,0.35928 0.268865,0.75732 0.588079,1.08779 0.365086,0.37796 0.924005,0.64854 1.687754,0.64854 0.763743,-10e-6 1.322146,-0.27057 1.687234,-0.64854 0.318638,-0.32988 0.49289,-0.72826 0.588595,-1.08728 0.02984,0.002 0.06366,0.004 0.100769,0.004 0.435237,0 0.795301,-0.35953 0.795301,-0.79478 0,-0.36392 -0.251759,-0.67359 -0.588595,-0.76533 l 0.02791,-0.25838 c 0.01688,-0.15669 -0.105953,-0.29336 -0.263552,-0.29301 z"
         id="path2596805" />
      <path
         style="color:#000000;fill:#b01d47;fill-opacity:1;stroke-width:0.794892;stroke-linecap:round;stroke-linejoin:round;stroke-miterlimit:1.5;-inkscape-stroke:none"
         d="m 68.400391,287.59961 a 0.26460996,0.26460996 0 0 0 -0.306641,0.0488 l -0.587891,0.58789 a 0.26460996,0.26460996 0 0 0 0,0.375 l 1.470703,1.46875 a 0.26460996,0.26460996 0 0 0 0.398438,-0.0274 l 0.882812,-1.17578 a 0.26460996,0.26460996 0 0 0 -0.09375,-0.39648 z"
         id="path2596833" />
      <path
         style="color:#000000;fill:#b01d47;fill-opacity:1;stroke-width:0.794892;stroke-linecap:round;stroke-linejoin:round;stroke-miterlimit:1.5;-inkscape-stroke:none"
         d="m 71.691406,287.59961 -1.763672,0.88086 a 0.26460996,0.26460996 0 0 0 -0.09375,0.39648 l 0.882813,1.17578 a 0.26460996,0.26460996 0 0 0 0.398437,0.0274 l 1.46875,-1.46875 a 0.26460996,0.26460996 0 0 0 0,-0.375 l -0.58789,-0.58789 a 0.26460996,0.26460996 0 0 0 -0.304688,-0.0488 z"
         id="path2596839" />
      <path
         style="color:#000000;fill:#b01d47;fill-opacity:1;stroke-width:3.00432;stroke-linecap:round;stroke-linejoin:round;stroke-miterlimit:1.5;-inkscape-stroke:none"
         d="m 274.48047,10.341793 c -0.76695,-0.5646615 -1.81418,-0.8704125 -3.07813,-0.8652345 l -13.33203,4e-6 c -1.25167,-0.00295 -2.29073,0.3012266 -3.05469,0.8574215 -0.76566,0.557518 -1.27734,1.396461 -1.27734,2.30957 0,1.06214 0.7605,1.830564 1.56445,2.229493 0.80397,0.398967 1.76828,0.614997 2.82813,0.761719 2.11971,0.293669 4.63722,0.287865 6.60547,0.287109 1.96825,8.31e-4 4.49553,0.0047 6.61523,-0.287109 1.05985,-0.146646 2.02221,-0.362714 2.82617,-0.761719 0.80396,-0.398929 1.5586,-1.167353 1.5586,-2.21094 0,-0.925087 -0.48891,-1.755615 -1.25586,-2.320314 z"
         transform="matrix(0.26458334,0,0,0.26458334,0,280.06666)"
         id="path2596845"
         sodipodi:nodetypes="sccccscccccs" />
      <path
         id="path2596793"
         style="color:#000000;fill:#66342d;stroke-width:3.00432;stroke-linecap:round;stroke-linejoin:round;stroke-miterlimit:1.5;-inkscape-stroke:none"
         d="M 245.4043,44.001953 V 49 a 1.0001006,1.0001006 0 0 0 1.0039,0.996094 h 4.9961 A 1.0001006,1.0001006 0 0 0 252.4082,49 v -4.998047 z"
         transform="matrix(0.26458334,0,0,0.26458334,0,280.06666)" />
    </g>
    <path
       id="path17665"
       style="color:#000000;display:inline;fill:#000000;stroke:none;stroke-width:1;stroke-linecap:round;stroke-linejoin:round;stroke-miterlimit:1.5;-inkscape-stroke:none"
       d="m 9.2521507,276.70665 c -0.4182618,0.65184 -0.5166236,1.36735 -0.531136,1.83916 -0.2179233,0.17651 -0.3514779,0.41052 -0.3722114,0.70471 -9.985e-4,0.30289 0.1617973,0.52085 0.3643626,0.66506 -0.4024911,0.12925 -0.6975666,0.51005 -0.6975666,0.95306 0,0.54755 0.4503722,0.99791 0.9979146,0.99791 0.047043,0 0.089967,-0.003 0.1280725,-0.005 0.1201435,0.4518 0.3378241,0.95297 0.7391702,1.36848 0.1318204,0.13645 0.2840914,0.26186 0.4563734,0.3712 l -0.224284,1.02002 -0.1729311,-0.0864 c -0.1285218,-0.0652 -0.2843744,-0.0403 -0.3861613,0.0618 l -0.6579071,0.65791 -2.0640912,0.26069 c -0.8630721,0.18643 -1.3504145,0.83356 -1.5752078,1.5037 -0.22479,0.67015 -0.2359873,1.38901 -0.2359873,1.88271 v 0.80288 H 4.3450984 c -0.4192603,0 -0.7664743,0.34722 -0.7664743,0.76648 v 4.78933 c 0,0.41927 0.347214,0.76908 0.7664743,0.76908 h 4.7886858 c 0.4192605,0 0.7664743,-0.34981 0.7664743,-0.76908 v -0.56299 h 0.7768795 v 0.56299 c 0,0.41921 0.34986,0.76908 0.769077,0.76908 h 3.125063 c 0.419216,0 0.766474,-0.34987 0.766474,-0.76908 v -0.56299 h 3.329847 c 0.183829,-7.3e-4 0.332272,-0.15032 0.331552,-0.33416 v -3.47676 -1.98543 c 0,-0.4937 -0.0112,-1.21191 -0.235986,-1.88206 -0.224793,-0.67014 -0.714083,-1.31727 -1.577159,-1.5037 l -2.064091,-0.26069 -0.658555,-0.6579 c -0.101335,-0.10077 -0.255709,-0.12568 -0.383566,-0.0618 l -0.172927,0.0864 -0.227537,-1.02521 c 0.16883,-0.10806 0.317597,-0.23177 0.447273,-0.36601 0.401557,-0.41573 0.620269,-0.91659 0.740472,-1.36848 0.0376,0.003 0.07999,0.005 0.126771,0.005 0.547542,0 1.000515,-0.44972 1.000515,-0.99726 0,-0.4399 -0.292303,-0.81861 -0.691063,-0.95046 0.203497,-0.1442 0.366659,-0.36329 0.366659,-0.64784 -0.0083,-0.28517 -0.145308,-0.54664 -0.371213,-0.73234 -0.01535,-0.47188 -0.114531,-1.1831 -0.530487,-1.83135 -0.460464,-0.71761 -1.340226,-1.31451 -2.759677,-1.31451 -1.419449,0 -2.2959649,0.5969 -2.7564293,1.31451 z m 2.7564513,-0.6488 c 1.243363,0 1.846133,0.4566 2.199312,1.00702 0.241672,0.37663 0.352439,0.81501 0.398516,1.17734 -0.118507,-0.02 -0.245144,-0.0304 -0.379014,-0.0299 H 9.7897875 c -0.1325427,-4e-4 -0.2583618,0.0113 -0.3770611,0.0332 0.045824,-0.36296 0.1567712,-0.80285 0.399166,-1.1806 0.3531786,-0.55042 0.9533516,-1.00702 2.1967096,-1.00702 z m 0,2.81822 h 2.220145 c 0.31049,-0.001 0.513542,0.076 0.628033,0.15992 0.217806,0.2178 0.08712,0.32657 -0.0026,0.37838 -0.151808,0.0753 -0.419018,0.14289 -0.734624,0.18658 -0.631209,0.0874 -1.455999,0.0912 -2.110894,0.0911 -0.654898,2.8e-4 -1.477086,-0.004 -2.1082981,-0.0911 -0.3156027,-0.0437 -0.5828117,-0.11121 -0.73462,-0.18658 -0.2255989,-0.16745 -0.1166851,-0.31336 0.013414,-0.39646 0.1171544,-0.081 0.3085096,-0.1429 0.610705,-0.14184 z m 1.638895,3.89218 c -0.340321,0.35233 -0.832676,0.61174 -1.643471,0.61175 -0.810794,0 -1.303798,-0.25943 -1.644122,-0.61175 -0.330684,-0.34235 -0.5140339,-0.79488 -0.6065475,-1.204 -0.00419,-0.0165 -0.00962,-0.0325 -0.016244,-0.0481 l 0.00586,-0.004 c -0.026595,-0.0993 -0.1115825,-0.22074 -0.2132366,-0.275 -0.1016478,-0.0542 -0.1869844,-0.0543 -0.2483395,-0.054 -0.1227098,8.1e-4 -0.1969833,0.0169 -0.2678447,0.0169 -0.1877767,0 -0.3315532,-0.14379 -0.3315532,-0.33155 0,-0.18639 0.1432007,-0.32943 0.3289536,-0.33156 0.012582,8.3e-4 0.024431,10e-4 0.039656,0.005 0.1798747,0.0404 0.3581682,-0.0736 0.3978644,-0.25354 l 0.00782,-0.0878 c 0.1134469,0.0239 0.2316702,0.0442 0.353658,0.0611 0.7055555,0.0978 1.5435205,0.0959 2.1986605,0.0956 0.655143,2.8e-4 1.49636,10e-4 2.201911,-0.0956 0.117903,-0.0164 0.232007,-0.0357 0.341959,-0.0585 -9.99e-4,0.0264 9.97e-4,0.0536 0.0065,0.0806 0.03749,0.17968 0.213546,0.29456 0.393313,0.25744 0.01567,-0.004 0.03046,-0.004 0.04421,-0.005 0.185758,0.003 0.331552,0.14517 0.331552,0.33156 0,0.18776 -0.146379,0.33155 -0.334153,0.33155 -0.07085,0 -0.145124,-0.016 -0.267844,-0.0169 -0.06135,-3.9e-4 -0.14408,0.003 -0.24574,0.0566 -0.101662,0.0542 -0.186632,0.17311 -0.218446,0.29451 -0.09723,0.43294 -0.281827,0.88963 -0.614355,1.23389 z m -0.585073,1.11819 0.229491,1.04147 -1.282014,0.64101 -1.28396,-0.64166 0.230139,-1.03758 c 0.306959,0.0993 0.656209,0.15604 1.047973,0.15604 0.396469,-2e-5 0.748743,-0.0579 1.058371,-0.15928 z m -3.2063252,1.35092 1.6467212,0.82303 -0.639054,0.85294 -1.3418233,-1.34182 z m 4.3076082,0 0.334153,0.33415 -1.34182,1.34182 -0.638406,-0.85294 z m 0.925752,0.68391 1.958769,0.24769 c 0.614732,0.13431 0.903996,0.52776 1.083728,1.06358 0.180147,0.53704 0.201534,1.19034 0.201534,1.66817 v 1.65387 h -1.553104 v -1.65387 c 6.66e-4,-0.18389 -0.147664,-0.33352 -0.331556,-0.33415 -0.184851,-7.4e-4 -0.334882,0.14929 -0.334152,0.33415 v 5.13064 h -0.77688 v -2.56272 c 0,-0.41922 -0.347271,-0.76647 -0.766474,-0.76647 h -0.623453 c -0.138481,-0.38594 -0.508732,-0.66571 -0.939406,-0.66571 -0.430697,0 -0.802243,0.27973 -0.941353,0.66571 h -0.62085 c -0.419207,0 -0.769078,0.34725 -0.769078,0.76647 v 2.56272 H 9.9003052 v -3.56063 c 0,-0.41927 -0.347214,-0.76648 -0.7664743,-0.76648 H 7.9051281 v -0.80353 c 6.658e-4,-0.18486 -0.149302,-0.33488 -0.3341527,-0.33415 -0.1838955,6.3e-4 -0.3322788,0.15026 -0.3315565,0.33415 v 0.80353 H 5.6843656 v -0.80288 c 0,-0.47783 0.023333,-1.13178 0.2034839,-1.66882 0.1797348,-0.53582 0.4689955,-0.92927 1.083728,-1.06358 l 1.9574713,-0.24704 1.7357832,1.73318 c 0.142855,0.14317 0.379312,0.12691 0.501233,-0.0345 l 0.843836,-1.12403 0.84384,1.12403 c 0.121928,0.16137 0.358378,0.17762 0.501233,0.0345 z m -0.862043,3.15431 c -0.182817,7.1e-4 -0.330841,0.14874 -0.331553,0.33156 -6.66e-4,0.18384 0.147724,0.33344 0.331553,0.33416 h 0.371213 c 0.183829,-7.3e-4 0.332271,-0.15032 0.331552,-0.33416 -6.66e-4,-0.18282 -0.148736,-0.33084 -0.331552,-0.33156 z m -9.882271,1.29502 h 1.2287027 v 0.99726 c 6.658e-4,0.18389 0.1502673,0.33226 0.3341529,0.33155 h 1.6629748 c 0.1838856,7.1e-4 0.3335037,-0.14766 0.3341527,-0.33155 v -0.99726 h 1.2287028 c 0.061971,0 0.1007647,0.0387 0.1007647,0.10077 v 4.78868 c 0,0.062 -0.038794,0.10341 -0.1007647,0.10341 H 7.9051281 v -1.00051 c -6.657e-4,-0.22764 -0.2238913,-0.38779 -0.4394712,-0.31466 l -0.8672427,0.288 -0.5434883,-0.27044 c -0.2211254,-0.11046 -0.4806954,0.0499 -0.4810782,0.2971 v 1.00051 H 4.345145 c -0.061971,0 -0.1033675,-0.0415 -0.1033675,-0.10341 v -4.78868 c 0,-0.062 0.041397,-0.10077 0.1033675,-0.10077 z m 1.8944119,0 h 0.999862 v 0.6657 h -0.999862 z m 7.1011201,0.6657 c 6.66e-4,0.18384 0.15032,0.33228 0.33415,0.33156 h 0.896497 c 0.06203,0 0.100769,0.0387 0.100769,0.10077 v 3.79142 c 0,0.062 -0.03875,0.10341 -0.100769,0.10341 h -3.125062 c -0.06202,0 -0.103373,-0.0414 -0.103373,-0.10341 v -3.79142 c 0,-0.062 0.04134,-0.10077 0.103373,-0.10077 h 0.8965 c 0.182818,-6.9e-4 0.330845,-0.14874 0.331557,-0.33156 0,-0.18189 0.137956,-0.32539 0.325702,-0.33414 0.19622,0 0.340656,0.14637 0.340656,0.33414 z m 3.439709,0.18399 h 1.553104 v 2.81106 h -1.553104 z m -4.771784,0.81328 c -0.183069,7.1e-4 -0.331199,0.14914 -0.331555,0.33221 -6.66e-4,0.18383 0.147724,0.33343 0.331555,0.33415 h 1.997777 c 0.184848,7.4e-4 0.334879,-0.14931 0.334157,-0.33415 -3.32e-4,-0.18409 -0.150071,-0.33292 -0.334157,-0.33221 z m 0,1.16499 c -0.183831,7.3e-4 -0.332275,0.15032 -0.331555,0.33416 6.65e-4,0.18282 0.148739,0.33084 0.331555,0.33156 h 1.997777 c 0.183833,7.2e-4 0.333441,-0.14772 0.334157,-0.33156 6.65e-4,-0.18485 -0.149309,-0.33488 -0.334157,-0.33416 z m 0.0014,1.16435 c -0.184847,-7.4e-4 -0.334875,0.1493 -0.334152,0.33415 3.32e-4,0.18408 0.150071,0.33292 0.334152,0.3322 0.183071,-7e-4 0.3312,-0.14912 0.331556,-0.3322 6.66e-4,-0.18383 -0.147724,-0.33343 -0.331556,-0.33415 z m 0.999865,0 c -0.184846,-7.4e-4 -0.334878,0.1493 -0.334156,0.33415 3.33e-4,0.18408 0.150071,0.33292 0.334156,0.3322 0.18307,-7.3e-4 0.331198,-0.14914 0.331554,-0.3322 6.65e-4,-0.18383 -0.147725,-0.33343 -0.331554,-0.33415 z M 7.2395,294.82514 v 0.53828 H 6.2395903 v -0.46222 l 0.1839786,0.0936 c 0.079469,0.0396 0.1714235,0.0454 0.2554926,0.0169 z"
       sodipodi:nodetypes="scccsscsccccccsscssssssccssssccccssccccccscsscccscsssccccssccccccccccccscccccsscccccccccccsscccscccccscccccccccccccsscccccccsscscssccssccccccsscccccccccsccsccsccccccsssscccccccssssccccccccssssssccccccccccccscccccsscsccssccsscccsccccccccc" />
  </g>
</svg>
