<?xml version="1.0" encoding="iso-8859-1"?>
<!-- Generator: Adobe Illustrator 23.0.2, SVG Export Plug-In . SVG Version: 6.00 Build 0)  -->
<svg version="1.1" id="_x31_1_Shopping_basket" xmlns="http://www.w3.org/2000/svg" xmlns:xlink="http://www.w3.org/1999/xlink"
	 x="0px" y="0px" viewBox="0 0 3872.983 3872.983" style="enable-background:new 0 0 3872.983 3872.983;" xml:space="preserve">
<g>
	<path d="M3365.395,1499.072H2111.459V711.718c0-32.211-26.111-58.323-58.323-58.323h-233.29c-32.211,0-58.323,26.111-58.323,58.323
		v787.355H507.589c-32.211,0-58.323,26.111-58.323,58.323v349.936c0,32.211,26.111,58.323,58.323,58.323h99.49L888.2,3174.477
		c6.146,26.416,29.685,45.112,56.808,45.112h1982.967c27.122,0,50.662-18.696,56.808-45.112l281.122-1208.824h99.49
		c32.211,0,58.323-26.111,58.323-58.323v-349.936C3423.717,1525.184,3397.606,1499.072,3365.395,1499.072z M2138.397,1849.008
		c19.918-34.342,31.385-74.168,31.385-116.645s-11.467-82.303-31.385-116.645h935.385v233.29H2138.397z M1819.847,1732.363
		c0-64.317,52.328-116.645,116.645-116.645s116.645,52.328,116.645,116.645s-52.328,116.645-116.645,116.645
		S1819.847,1796.68,1819.847,1732.363z M1734.586,1849.008H799.201v-233.29h935.385c-19.918,34.342-31.385,74.168-31.385,116.645
		S1714.669,1814.666,1734.586,1849.008z M1878.169,770.04h116.645v729.032h-116.645V770.04z M565.911,1615.718h116.645v233.29
		h-29.161h-87.484V1615.718z M991.324,3102.943l-27.127-116.645h1944.589l-27.127,116.645H991.324z M2935.913,2869.653H937.07
		l-210.234-904h2419.31L2935.913,2869.653z M3307.072,1849.008h-87.484h-29.161v-233.29h116.645V1849.008z"/>
	<path d="M1061.653,2111.459c0-32.211-26.111-58.323-58.323-58.323s-58.323,26.111-58.323,58.323v174.968
		c0,32.211,26.111,58.323,58.323,58.323s58.323-26.111,58.323-58.323V2111.459z"/>
	<path d="M1294.943,2111.459c0-32.211-26.111-58.323-58.323-58.323c-32.211,0-58.323,26.111-58.323,58.323v174.968
		c0,32.211,26.111,58.323,58.323,58.323c32.211,0,58.323-26.111,58.323-58.323V2111.459z"/>
	<path d="M1528.234,2111.459c0-32.211-26.111-58.323-58.323-58.323c-32.211,0-58.323,26.111-58.323,58.323v174.968
		c0,32.211,26.111,58.323,58.323,58.323c32.211,0,58.323-26.111,58.323-58.323V2111.459z"/>
	<path d="M1761.524,2111.459c0-32.211-26.111-58.323-58.323-58.323c-32.211,0-58.323,26.111-58.323,58.323v174.968
		c0,32.211,26.111,58.323,58.323,58.323c32.211,0,58.323-26.111,58.323-58.323V2111.459z"/>
	<path d="M1994.814,2111.459c0-32.211-26.111-58.323-58.323-58.323c-32.211,0-58.323,26.111-58.323,58.323v174.968
		c0,32.211,26.111,58.323,58.323,58.323c32.211,0,58.323-26.111,58.323-58.323V2111.459z"/>
	<path d="M2228.104,2111.459c0-32.211-26.111-58.323-58.323-58.323s-58.323,26.111-58.323,58.323v174.968
		c0,32.211,26.111,58.323,58.323,58.323s58.323-26.111,58.323-58.323V2111.459z"/>
	<path d="M2461.395,2111.459c0-32.211-26.111-58.323-58.323-58.323s-58.323,26.111-58.323,58.323v174.968
		c0,32.211,26.111,58.323,58.323,58.323s58.323-26.111,58.323-58.323V2111.459z"/>
	<path d="M2636.363,2053.137c-32.211,0-58.323,26.111-58.323,58.323v174.968c0,32.211,26.111,58.323,58.323,58.323
		s58.323-26.111,58.323-58.323v-174.968C2694.685,2079.248,2668.574,2053.137,2636.363,2053.137z"/>
	<path d="M2869.653,2053.137c-32.211,0-58.323,26.111-58.323,58.323v174.968c0,32.211,26.111,58.323,58.323,58.323
		s58.323-26.111,58.323-58.323v-174.968C2927.975,2079.248,2901.864,2053.137,2869.653,2053.137z"/>
	<path d="M1119.976,2461.395c-32.211,0-58.323,26.111-58.323,58.323v174.968c0,32.211,26.111,58.323,58.323,58.323
		c32.211,0,58.323-26.111,58.323-58.323v-174.968C1178.298,2487.506,1152.187,2461.395,1119.976,2461.395z"/>
	<path d="M1353.266,2461.395c-32.211,0-58.323,26.111-58.323,58.323v174.968c0,32.211,26.111,58.323,58.323,58.323
		c32.211,0,58.323-26.111,58.323-58.323v-174.968C1411.589,2487.506,1385.477,2461.395,1353.266,2461.395z"/>
	<path d="M1586.556,2461.395c-32.211,0-58.323,26.111-58.323,58.323v174.968c0,32.211,26.111,58.323,58.323,58.323
		c32.211,0,58.323-26.111,58.323-58.323v-174.968C1644.879,2487.506,1618.767,2461.395,1586.556,2461.395z"/>
	<path d="M1819.847,2461.395c-32.211,0-58.323,26.111-58.323,58.323v174.968c0,32.211,26.111,58.323,58.323,58.323
		c32.211,0,58.323-26.111,58.323-58.323v-174.968C1878.169,2487.506,1852.058,2461.395,1819.847,2461.395z"/>
	<path d="M2053.137,2461.395c-32.211,0-58.323,26.111-58.323,58.323v174.968c0,32.211,26.111,58.323,58.323,58.323
		c32.211,0,58.323-26.111,58.323-58.323v-174.968C2111.459,2487.506,2085.348,2461.395,2053.137,2461.395z"/>
	<path d="M2286.427,2461.395c-32.211,0-58.323,26.111-58.323,58.323v174.968c0,32.211,26.111,58.323,58.323,58.323
		c32.211,0,58.323-26.111,58.323-58.323v-174.968C2344.75,2487.506,2318.638,2461.395,2286.427,2461.395z"/>
	<path d="M2519.717,2461.395c-32.211,0-58.323,26.111-58.323,58.323v174.968c0,32.211,26.111,58.323,58.323,58.323
		c32.211,0,58.323-26.111,58.323-58.323v-174.968C2578.04,2487.506,2551.929,2461.395,2519.717,2461.395z"/>
	<path d="M2782.169,2461.395c-32.211,0-58.323,26.111-58.323,58.323v174.968c0,32.211,26.111,58.323,58.323,58.323
		s58.323-26.111,58.323-58.323v-174.968C2840.491,2487.506,2814.38,2461.395,2782.169,2461.395z"/>
</g>
</svg>
